<?xml version="1.0" standalone="no"?>
<!DOCTYPE svg PUBLIC "-//W3C//DTD SVG 20010904//EN"
 "http://www.w3.org/TR/2001/REC-SVG-20010904/DTD/svg10.dtd">
<svg version="1.0" xmlns="http://www.w3.org/2000/svg"
 width="89.000000pt" height="81.000000pt" viewBox="0 0 89.000000 81.000000"
 preserveAspectRatio="xMidYMid meet">

<g transform="translate(0.000000,81.000000) scale(0.100000,-0.100000)"
fill="#000000" stroke="none">
<path d="M0 405 l0 -405 446 0 445 0 -5 162 c-6 198 -6 167 0 431 l5 217 -445
0 -446 0 0 -405z m289 145 c10 -5 24 -22 30 -39 30 -72 -60 -134 -117 -81 -63
59 11 161 87 120z m520 -79 c33 -23 36 -37 12 -51 -16 -8 -26 -7 -45 6 -27 17
-70 11 -64 -9 2 -7 28 -24 58 -38 37 -18 58 -35 66 -55 35 -86 -81 -149 -167
-91 -37 25 -44 54 -17 71 13 8 22 5 42 -13 28 -27 71 -26 71 2 0 11 -18 28
-50 45 -27 15 -56 39 -65 55 -41 74 80 134 159 78z m-603 -86 l34 -14 0 -105
c0 -109 -3 -116 -41 -95 -11 6 -48 13 -82 17 l-62 7 -3 94 c-4 126 -4 125 64
117 30 -3 71 -13 90 -21z m239 -85 l0 -105 -55 -7 c-30 -4 -68 -11 -83 -17
-16 -6 -33 -11 -38 -11 -5 0 -9 46 -9 105 0 93 2 105 19 115 31 16 92 29 131
27 l35 -2 0 -105z"/>
</g>
</svg>
